# xmcd
#
# Track frame offsets:
#	150
#	20419
#	47766
#	80094
#	111422
#	145279
#	169754
#	197409
#	227718
#	256490
#	280030
#	304081
#
# Disc length: 4461 seconds
#
# Revision: 0
# Processed by: cddbd v1.4PL0 Copyright (c) Steve Scherf et al.
# Submitted via: dBpowerAMP V4.0
#
DISCID=a4116b0c
DTITLE=Quang Dung - Co xot xa dua
DYEAR=1900
DGENRE=
TTITLE0=Bong chieu ta
TTITLE1=Cac anh di
TTITLE2=Co lang gien
TTITLE3=Co xot xa dua
TTITLE4=Dan chim Viet
TTITLE5=Huong ve Ha Noi
TTITLE6=Mong duoi hoa
TTITLE7=Mot thoang chiem bao
TTITLE8=Nua hon thuong dau
TTITLE9=Xom dem
TTITLE10=Mot ngay xa xam
TTITLE11=Mua hoa bo lai
EXTD=
EXTT0=
EXTT1=
EXTT2=
EXTT3=
EXTT4=
EXTT5=
EXTT6=
EXTT7=
EXTT8=
EXTT9=
EXTT10=
EXTT11=
PLAYORDER=
